HIERARCHY
ROOT root
{
	OFFSET	0	13.1	24.9
	CHANNELS 6  Xposition Yposition Zposition Xrotation Yrotation Zrotation
	JOINT spine_1
	{
		OFFSET	0	9.99999	0
		CHANNELS 3  Xrotation Yrotation Zrotation
		JOINT spine_2
		{
			OFFSET	0	112	-10
			CHANNELS 3  Xrotation Yrotation Zrotation
			JOINT spine_3
			{
				OFFSET	0	206.5	19.3
				CHANNELS 3  Xrotation Yrotation Zrotation
				JOINT spine_4
				{
					OFFSET	0	110.4	14.6
					CHANNELS 3  Xrotation Yrotation Zrotation
					JOINT neck_1
					{
						OFFSET	0	71.8	-50.3
						CHANNELS 3  Xrotation Yrotation Zrotation
						JOINT neck_2
						{
							OFFSET	0	86.2	-25.8
							CHANNELS 3  Xrotation Yrotation Zrotation
							JOINT head_ee
							{
								OFFSET	0	179.8	-8.7
								CHANNELS 3  Xrotation Yrotation Zrotation
								End Site
								{
									OFFSET	1	0	0
								}
							}
						}
					}
					JOINT left_clavicle
					{
						OFFSET	-43.2	22.4	-70.8
						CHANNELS 3  Xrotation Yrotation Zrotation
						JOINT left_shoulder
						{
							OFFSET	-93.9	-5.79999	48.7
							CHANNELS 3  Xrotation Yrotation Zrotation
							JOINT left_elbow
							{
								OFFSET	-291.4	-30.8	15.2
								CHANNELS 3  Xrotation Yrotation Zrotation
								JOINT left_lowarm_twist
								{
									OFFSET	-110.7	-3.89999	13.6
									CHANNELS 3  Xrotation Yrotation Zrotation
									JOINT left_hand
									{
										OFFSET	-110.7	-3.89999	13.6
										CHANNELS 3  Xrotation Yrotation Zrotation
										JOINT left_ee
										{
											OFFSET	-80.8	-5.10001	12.1
											CHANNELS 3  Xrotation Yrotation Zrotation
											End Site
											{
												OFFSET	1	0	0
											}
										}
									}
								}
							}
						}
					}
					JOINT right_clavicle
					{
						OFFSET	43.2	22.4	-70.8
						CHANNELS 3  Xrotation Yrotation Zrotation
						JOINT right_shoulder
						{
							OFFSET	93.9	-5.79999	48.7
							CHANNELS 3  Xrotation Yrotation Zrotation
							JOINT right_elbow
							{
								OFFSET	291.4	-30.8	15.2
								CHANNELS 3  Xrotation Yrotation Zrotation
								JOINT right_lowarm_twist
								{
									OFFSET	110.7	-3.89999	13.6
									CHANNELS 3  Xrotation Yrotation Zrotation
									JOINT right_hand
									{
										OFFSET	110.7	-3.89999	13.6
										CHANNELS 3  Xrotation Yrotation Zrotation
										JOINT right_ee
										{
											OFFSET	80.8	-5.10001	12.1
											CHANNELS 3  Xrotation Yrotation Zrotation
											End Site
											{
												OFFSET	1	0	0
											}
										}
									}
								}
							}
						}
					}
				}
			}
		}
	}
	JOINT left_hip
	{
		OFFSET	-82.8	-127.5	0.300001
		CHANNELS 3  Xrotation Yrotation Zrotation
		JOINT left_knee
		{
			OFFSET	-28.2	-396.7	2.2
			CHANNELS 3  Xrotation Yrotation Zrotation
			JOINT left_ankle
			{
				OFFSET	-11.7	-411.3	35.4
				CHANNELS 3  Xrotation Yrotation Zrotation
				JOINT left_toes
				{
					OFFSET	0	-60	-88.6
					CHANNELS 3  Xrotation Yrotation Zrotation
					JOINT left_foot_ee
					{
						OFFSET	-22.5	-16.5	-42.2
						CHANNELS 3  Xrotation Yrotation Zrotation
						End Site
						{
							OFFSET	1	0	0
						}
					}
				}
			}
		}
	}
	JOINT right_hip
	{
		OFFSET	82.8	-127.5	0.300001
		CHANNELS 3  Xrotation Yrotation Zrotation
		JOINT right_knee
		{
			OFFSET	28.2	-396.7	2.2
			CHANNELS 3  Xrotation Yrotation Zrotation
			JOINT right_ankle
			{
				OFFSET	11.7	-411.3	35.4
				CHANNELS 3  Xrotation Yrotation Zrotation
				JOINT right_toes
				{
					OFFSET	0	-60	-88.6
					CHANNELS 3  Xrotation Yrotation Zrotation
					JOINT right_foot_ee
					{
						OFFSET	22.5	-16.5	-42.2
						CHANNELS 3  Xrotation Yrotation Zrotation
						End Site
						{
							OFFSET	1	0	0
						}
					}
				}
			}
		}
	}
}
MOTION
Frames: 16
Frame Time: 0.02
3177.02 653.055 -1669.29 -16.0952139696 18.5250935559 4.91133485779 5.17373 0.0995647 1.98447 5.17592 -0.0268886 1.98678 5.17303 -0.26754 1.96888 5.16763 0.0467013 1.98642 0.512357 6.26167 -8.18636 1.0635 17.8387 -8.33845 -0.0 0.0 -0.0 -2.20784 -3.99647 -4.89644 -7.14562 -20.2445 88.7308 0.421598 -11.7967 0.0435559 -18.2624 -0.988112 2.10592 -0.922939 10.2245 -1.67239 -0.0 0.0 -0.0 11.3025 24.6951 -21.9339 2.6919 11.9528 -66.5271 2.62655 52.4462 -1.29391 -49.1896 3.97712 -4.63985 1.70164 7.41534 -8.36949 0.0 0.0 0.0 36.8791 -15.0948 -4.92435 -1.65875 0.0647357 0.246319 7.39646 27.4571 -1.12427 -11.9629 0.0 0.0 -0.0 0.0 -0.0 15.0922 -8.65839 9.13381 -26.1301 -0.172735 -3.97157 36.1275 21.3904 5.04551 2.49667 -0.0 -0.0 0.0 0.0 0.0 
3159.57084318 650.363 -1685.06844498 -15.827350245 18.2426674374 4.96176466006 5.10931 0.0903434 1.91369 5.11135 -0.03159 1.91556 5.1085 -0.265706 1.89731 5.10348 0.0372165 1.91546 0.742368 5.82705 -8.75078 1.32725 17.5395 -9.04262 -0.0 0.0 -0.0 -2.64691 -4.40416 -5.8468 -8.29295 -20.7336 89.2686 0.416337 -11.6536 0.0424868 -18.3899 -0.997316 2.1194 -0.864041 9.8917 -1.44096 -0.0 0.0 -0.0 11.2144 24.2505 -21.7788 1.89475 11.7963 -66.7075 2.55327 51.6606 -1.23612 -49.0365 3.95931 -4.63157 1.76424 6.95991 -8.99119 0.0 0.0 0.0 36.6208 -15.8046 -4.85167 -3.05916 0.113812 0.455632 8.32516 27.3017 -1.26087 -11.9264 0.0 0.0 -0.0 0.0 -0.0 15.0826 -6.51686 9.25478 -27.9605 -0.116765 -4.2469 35.6485 21.3287 4.99428 2.34744 -0.0 -0.0 0.0 0.0 0.0 
3159.50456018 650.363 -1684.99483263 -15.8492008816 18.4747622842 5.03113926767 5.10931 0.0903434 1.91369 5.11135 -0.03159 1.91556 5.1085 -0.265706 1.89731 5.10348 0.0372165 1.91546 0.742368 5.82705 -8.75078 1.32725 17.5395 -9.04262 -0.0 0.0 -0.0 -2.64691 -4.40416 -5.8468 -8.29295 -20.7336 89.2686 0.416337 -11.6536 0.0424868 -18.3899 -0.997316 2.1194 -0.864041 9.8917 -1.44096 -0.0 0.0 -0.0 11.2144 24.2505 -21.7788 1.89475 11.7963 -66.7075 2.55327 51.6606 -1.23612 -49.0365 3.95931 -4.63157 1.76424 6.95991 -8.99119 0.0 0.0 0.0 36.6208 -15.8046 -4.85167 -3.05916 0.113812 0.455632 8.32516 27.3017 -1.26087 -11.9264 0.0 0.0 -0.0 0.0 -0.0 15.0826 -6.51686 9.25478 -27.9605 -0.116765 -4.2469 35.6485 21.3287 4.99428 2.34744 -0.0 -0.0 0.0 0.0 0.0 
3144.6377685 652.923 -1702.69040095 -16.0064461896 18.5922967235 5.63484159329 5.04006 0.0940245 1.8614 5.04199 -0.0245911 1.86361 5.03953 -0.25462 1.84631 5.03477 0.0401131 1.86335 -0.450267 6.33175 -7.79358 0.030388 17.6261 -7.72218 -0.0 0.0 -0.0 -3.1974 -4.10253 -6.91333 -8.4441 -20.8595 90.8087 0.457639 -12.7733 0.0512248 -18.5317 -1.00759 2.13438 -0.907532 9.98174 -1.6802 -0.0 0.0 -0.0 11.0502 23.4287 -21.4856 -0.847679 11.5666 -66.4983 2.46524 50.6794 -1.16754 -48.6257 3.9116 -4.6091 1.75863 7.1159 -8.88637 0.0 0.0 0.0 36.5313 -16.6496 -4.53373 -4.22875 0.150865 0.631303 5.4193 27.5738 -0.82879 -12.8175 0.0 0.0 -0.0 0.0 -0.0 14.8906 -4.50727 8.86687 -29.7232 -0.054571 -4.51025 35.1123 20.9597 4.92345 2.57039 -0.0 -0.0 0.0 0.0 0.0 
3101.22293312 659.867 -1742.3929791 -14.7718741023 17.3112252966 5.01698022185 5.05474 0.115423 1.5998 5.05616 0.0134029 1.6039 5.05531 -0.184361 1.59333 5.05177 0.0695558 1.60245 0.539389 6.32934 -7.51221 1.03685 17.4065 -7.59186 -0.0 0.0 -0.0 -3.61579 -4.58452 -7.84804 -7.08068 -18.1935 91.8681 0.508768 -14.1458 0.0631265 -18.7262 -1.02174 2.15487 -0.562052 10.5651 0.779909 -0.0 0.0 -0.0 10.5444 19.6623 -20.6495 -5.774 11.4766 -67.169 2.29331 48.6372 -1.03648 -48.6239 3.9114 -4.609 1.69672 5.27462 -9.24301 0.0 0.0 0.0 36.1584 -17.7138 -3.24767 -11.4077 0.299075 1.72227 9.08119 27.0154 -1.36993 -11.1067 0.0 0.0 -0.0 0.0 -0.0 14.3375 2.00941 8.32579 -32.9819 0.0816528 -4.99172 34.0403 18.7482 4.72435 2.6836 -0.0 -0.0 0.0 0.0 0.0 
3062.50880684 657.544 -1777.47267672 -14.3918444904 17.1536226175 4.54187642294 4.83371 0.0106763 1.42037 4.83483 -0.079718 1.41817 4.83196 -0.259348 1.39654 4.82924 -0.0355595 1.41997 0.0322385 6.42315 -6.13643 0.409102 16.4484 -5.98495 -0.0 0.0 -0.0 -3.65884 -3.5153 -7.74771 -6.76977 -15.7732 91.5054 0.606205 -16.7149 0.0890576 -22.3555 -1.29846 2.52831 -0.474664 9.42154 0.855075 -0.0 0.0 -0.0 9.95761 16.4842 -19.5279 -9.92828 7.70257 -67.4835 2.41469 50.0967 -1.1286 -51.165 4.20892 -4.74244 1.37879 -1.59054 -9.88726 0.0 0.0 0.0 36.321 -18.62 -0.517479 -15.5633 0.322088 2.35931 11.4162 24.8748 -1.68898 -11.0799 0.0 0.0 -0.0 0.0 -0.0 14.2569 18.0733 3.67782 -38.8929 0.397842 -5.84269 37.2023 6.94816 4.71391 1.74494 -0.0 -0.0 0.0 0.0 0.0 
3062.45663876 657.544 -1777.41743019 -14.3939666425 17.1803915732 4.54906630991 4.83371 0.0106763 1.42037 4.83483 -0.079718 1.41817 4.83196 -0.259348 1.39654 4.82924 -0.0355595 1.41997 0.0322385 6.42315 -6.13643 0.409102 16.4484 -5.98495 -0.0 0.0 -0.0 -3.65884 -3.5153 -7.74771 -6.76977 -15.7732 91.5054 0.606205 -16.7149 0.0890576 -22.3555 -1.29846 2.52831 -0.474664 9.42154 0.855075 -0.0 0.0 -0.0 9.95761 16.4842 -19.5279 -9.92828 7.70257 -67.4835 2.41469 50.0967 -1.1286 -51.165 4.20892 -4.74244 1.37879 -1.59054 -9.88726 0.0 0.0 0.0 36.321 -18.62 -0.517479 -15.5633 0.322088 2.35931 11.4162 24.8748 -1.68898 -11.0799 0.0 0.0 -0.0 0.0 -0.0 14.2569 18.0733 3.67782 -38.8929 0.397842 -5.84269 37.2023 6.94816 4.71391 1.74494 -0.0 -0.0 0.0 0.0 0.0 
3062.48983008 657.544 -1777.45258631 -14.3926158809 17.1633585913 4.54449116488 4.83371 0.0106763 1.42037 4.83483 -0.079718 1.41817 4.83196 -0.259348 1.39654 4.82924 -0.0355595 1.41997 0.0322385 6.42315 -6.13643 0.409102 16.4484 -5.98495 -0.0 0.0 -0.0 -3.65884 -3.5153 -7.74771 -6.76977 -15.7732 91.5054 0.606205 -16.7149 0.0890576 -22.3555 -1.29846 2.52831 -0.474664 9.42154 0.855075 -0.0 0.0 -0.0 9.95761 16.4842 -19.5279 -9.92828 7.70257 -67.4835 2.41469 50.0967 -1.1286 -51.165 4.20892 -4.74244 1.37879 -1.59054 -9.88726 0.0 0.0 0.0 36.321 -18.62 -0.517479 -15.5633 0.322088 2.35931 11.4162 24.8748 -1.68898 -11.0799 0.0 0.0 -0.0 0.0 -0.0 14.2569 18.0733 3.67782 -38.8929 0.397842 -5.84269 37.2023 6.94816 4.71391 1.74494 -0.0 -0.0 0.0 0.0 0.0 
3053.51802544 661.634 -1799.72984085 -14.1920151476 17.3691973075 4.1657141129 4.80613 -0.0716301 1.53138 4.80742 -0.168919 1.52372 4.80191 -0.362062 1.48969 4.79883 -0.122277 1.52817 -0.236372 5.7213 -4.6769 0.00753316 14.0151 -4.42481 -0.0 0.0 -0.0 -3.72183 -2.75545 -7.73917 -6.72711 -14.1083 91.187 0.582375 -16.0926 0.0823278 -23.6316 -1.40133 2.65539 -0.414671 8.72161 0.945791 -0.0 0.0 -0.0 9.71745 14.3907 -19.0924 -11.8318 6.00008 -68.9113 2.28526 48.5374 -1.03044 -52.6584 4.38642 -4.81467 1.25529 -5.54516 -10.606 0.0 0.0 0.0 35.7097 -20.3435 0.92412 -17.0526 0.319083 2.58779 17.6558 23.0592 -2.53057 -8.74036 0.0 0.0 -0.0 0.0 -0.0 17.3173 25.382 -0.880556 -41.567 0.569457 -6.21623 38.0781 1.73287 4.72178 1.68059 -0.0 -0.0 0.0 0.0 0.0 
3034.49736667 662.855 -1827.59674018 -14.5371696477 17.7316008267 4.3671735631 5.49886 -0.0814451 1.23399 5.49969 -0.159796 1.22631 5.49547 -0.300521 1.19961 5.49348 -0.107308 1.23201 0.760437 5.79709 -4.2069 1.00467 13.7471 -4.03438 -0.0 0.0 -0.0 -3.54988 -1.98468 -7.25538 -5.88094 -12.4841 90.2407 0.553886 -15.3433 0.0746101 -24.9132 -1.50747 2.7807 -0.519277 7.96022 -0.0528631 -0.0 0.0 -0.0 9.03314 11.5701 -17.6914 -15.1709 3.73073 -69.8678 1.97999 44.4405 -0.808902 -54.1727 4.56824 -4.88315 0.990134 -8.31945 -9.91131 0.0 0.0 0.0 35.6934 -21.5875 2.4634 -18.9364 0.306778 2.87655 21.4259 21.9566 -3.00748 -7.84465 0.0 0.0 -0.0 0.0 -0.0 18.6184 31.5091 -3.83001 -43.4591 0.70137 -6.47561 40.2073 -2.53078 4.87997 2.55995 -0.0 -0.0 0.0 0.0 0.0 
3021.42158521 662.261 -1855.64208321 -14.7789444784 17.2559446065 4.28299333834 6.05863 0.0745811 1.12992 6.05934 0.00253469 1.13238 6.05859 -0.117317 1.12629 6.05682 0.0620203 1.13068 -0.123863 6.30107 -2.15259 0.0282346 12.9942 -1.64889 -0.0 0.0 -0.0 -3.34393 -1.58384 -6.77331 -4.42041 -10.1084 89.1384 0.477605 -13.3111 0.0557306 -25.6823 -1.57252 2.85477 -0.83212 7.54117 -2.26188 -0.0 0.0 -0.0 8.1278 10.0812 -15.7837 -17.8427 3.07723 -72.5036 1.75922 41.0674 -0.658971 -55.229 4.69608 -4.92805 0.935224 -10.5237 -10.3845 0.0 0.0 0.0 35.5034 -22.3934 3.26193 -21.7361 0.27097 3.3046 26.0443 20.9333 -3.56187 -6.66178 0.0 0.0 -0.0 0.0 -0.0 19.5634 34.5719 -6.02426 -43.7856 0.724999 -6.51992 39.7271 -6.34265 4.83543 3.33632 -0.0 -0.0 0.0 0.0 0.0 
3005.55533388 660.636 -1883.56331675 -15.1059581033 17.9373124974 4.98677758332 6.51933 -0.0490817 0.938648 6.51982 -0.108708 0.933623 6.51746 -0.199561 0.918503 6.51629 -0.0520027 0.93849 0.631702 6.18157 -1.67064 0.774119 12.3457 -1.21539 -0.0 0.0 -0.0 -2.70995 -1.81569 -5.5534 -1.93162 -9.36874 86.8613 0.510562 -14.1937 0.0635656 -26.2282 -1.61929 2.9068 -0.5748 6.8348 -0.894502 -0.0 0.0 -0.0 8.09772 8.1797 -15.769 -20.533 1.21134 -72.6021 1.49813 36.5778 -0.495161 -55.5864 4.73952 -4.94271 0.916909 -11.8976 -10.7769 0.0 0.0 0.0 33.7302 -23.0671 3.18625 -22.2685 0.261796 3.38578 30.6436 20.4077 -4.08293 -5.1402 0.0 0.0 -0.0 0.0 -0.0 22.2694 36.2254 -8.05837 -45.0257 0.817056 -6.68703 40.3887 -6.43267 4.89298 3.85266 -0.0 -0.0 0.0 0.0 0.0 
2986.75999219 663.282 -1903.01813914 -15.6149677035 19.4247875925 5.92123088179 6.76692 -0.0102722 0.821853 6.76729 -0.0625462 0.819534 6.76591 -0.138935 0.810091 6.765 -0.00925738 0.821865 0.118671 6.16534 -0.497202 0.218176 11.3869 0.10166 -0.0 0.0 -0.0 -2.24746 -1.05666 -4.51771 -0.213885 -8.36095 85.5202 0.499959 -13.9105 0.0609912 -26.5801 -1.6497 2.94011 -0.831567 6.80949 -2.57817 -0.0 0.0 -0.0 6.756 6.57655 -12.9975 -21.7938 3.17545 -74.6546 1.40401 34.8168 -0.440236 -55.5032 4.7294 -4.93933 1.09859 -10.5254 -11.45 0.0 0.0 0.0 32.5216 -23.9126 3.30502 -22.8312 0.25128 3.47148 31.0914 20.68 -4.13752 -5.08807 0.0 0.0 -0.0 0.0 -0.0 23.6379 34.9584 -8.08414 -44.8567 0.804292 -6.66437 39.0437 -7.0138 4.77675 4.12583 -0.0 -0.0 0.0 0.0 0.0 
2978.25467495 663.282 -1895.82931041 -15.8288578182 21.4629011017 6.53348717405 6.76692 -0.0102722 0.821853 6.76729 -0.0625462 0.819534 6.76591 -0.138935 0.810091 6.765 -0.00925738 0.821865 0.118671 6.16534 -0.497202 0.218176 11.3869 0.10166 -0.0 0.0 -0.0 -2.24746 -1.05666 -4.51771 -0.213885 -8.36095 85.5202 0.499959 -13.9105 0.0609912 -26.5801 -1.6497 2.94011 -0.831567 6.80949 -2.57817 -0.0 0.0 -0.0 6.756 6.57655 -12.9975 -21.7938 3.17545 -74.6546 1.40401 34.8168 -0.440236 -55.5032 4.7294 -4.93933 1.09859 -10.5254 -11.45 0.0 0.0 0.0 32.5216 -23.9126 3.30502 -22.8312 0.25128 3.47148 31.0914 20.68 -4.13752 -5.08807 0.0 0.0 -0.0 0.0 -0.0 23.6379 34.9584 -8.08414 -44.8567 0.804292 -6.66437 39.0437 -7.0138 4.77675 4.12583 -0.0 -0.0 0.0 0.0 0.0 
2959.46007035 666.994 -1907.25600494 -15.4247578808 22.8449406628 6.58891254692 6.975 -0.0198463 0.711513 6.97528 -0.0650803 0.708809 6.9741 -0.128556 0.700085 6.97342 -0.0163798 0.711602 0.0943805 6.51302 -0.020556 0.193064 11.6187 0.653211 -0.0 0.0 -0.0 -1.86443 -1.40707 -3.81896 1.3865 -7.50773 84.0777 0.510977 -14.2047 0.0636672 -26.8299 -1.67142 2.96365 -0.559945 6.10489 -1.11075 -0.0 0.0 -0.0 7.06123 5.86796 -13.6488 -24.1036 0.00516063 -74.3007 1.22088 31.1638 -0.340473 -56.0942 4.8014 -4.96308 0.924176 -13.7766 -11.511 0.0 0.0 0.0 31.1327 -23.9728 3.66423 -23.6568 0.234328 3.59704 36.4838 18.8661 -4.66767 -3.39679 0.0 0.0 -0.0 0.0 -0.0 26.2785 38.0995 -9.78165 -45.5426 0.85649 -6.75609 39.6312 -7.36517 4.82979 4.43441 -0.0 -0.0 0.0 0.0 0.0 
2940.91502221 669.515 -1925.20023106 -15.8744989225 22.848637311 7.22392012303 7.07657 -0.0399802 0.604512 7.07677 -0.0783651 0.600743 7.07568 -0.13102 0.591496 7.0752 -0.0359614 0.604764 -0.249334 6.59261 0.482561 -0.162238 11.3791 1.23041 -0.0 0.0 -0.0 -1.64254 -1.2998 -3.3671 2.86159 -6.97376 82.9068 0.526875 -14.628 0.0676253 -27.0119 -1.6873 2.98073 -0.568754 5.82714 -1.2876 -0.0 0.0 -0.0 6.4971 4.92797 -12.5108 -25.6792 -0.400005 -74.8766 1.13659 29.3801 -0.297977 -56.2332 4.81836 -4.96855 0.941504 -14.3503 -11.8286 0.0 0.0 0.0 30.3091 -24.0303 3.85498 -24.1993 0.222205 3.6794 38.237 18.3886 -4.82855 -2.88081 0.0 0.0 -0.0 0.0 -0.0 28.5681 38.1856 -10.6926 -45.388 0.844634 -6.73548 39.3037 -7.61677 4.8018 4.57992 -0.0 -0.0 0.0 0.0 0.0 
